<?xml version="1.0" encoding="utf-8"?>
<!-- Generator: Adobe Illustrator 28.0.0, SVG Export Plug-In . SVG Version: 6.00 Build 0)  -->
<svg version="1.1" id="Layer_1" xmlns="https://www.w3.org/2000/svg" xmlns:xlink="https://www.w3.org/1999/xlink" x="0px" y="0px"
	 viewBox="0 0 330 430" style="enable-background:new 0 0 330 430;" xml:space="preserve">
<style type="text/css">
	.st0{fill:#FFFFFF;}
</style>
<g>
	<g>
		<path class="st0" d="M22.2,390.7l0.06,21.98c0,4.9,1.52,8.63,3.62,11.84h-7.81c2.16-3.26,3.62-6.94,3.62-11.84l-0.06-22.74
			l-4.55-6.24h10.14l20.18,27.06l0.06-15.22c0-4.9-1.46-8.57-3.62-11.84h7.81c-2.1,3.21-3.62,6.94-3.62,11.84l-0.06,29.92h-0.29
			L22.2,390.7z"/>
		<path class="st0" d="M53.7,404.11c0-12.59,10.5-21.34,21.4-21.34c12.65,0,21.28,10.55,21.28,21.4c0,12.54-10.09,21.29-20.88,21.29
			C62.51,425.46,53.7,415.08,53.7,404.11z M79.36,424.23c5.77,0,8.28-6.53,8.28-12.77c0-10.32-7.05-27.41-16.91-27.41
			c-5.77,0-8.28,6.41-8.28,12.77C62.45,406.74,69.45,424.23,79.36,424.23z"/>
		<path class="st0" d="M98.5,422.89l-0.06-14.58l0.17,0.06c2.86,7.52,8.34,15.98,16.62,16.33c2.86,0.06,6.76-1.22,6.76-5.83
			c0-3.91-2.86-6.01-10.14-9.45c-7.93-3.85-13.3-7.58-13.3-14.64c0-8.51,6.88-12.01,13.88-12.01c5.83,0,11.14,1.93,12.54,2.45v14.64
			h-0.17c-1.28-6.01-7.12-16.27-14.52-16.27c-3.91,0-6.12,2.39-6.12,5.83c0,6.12,6.76,8.05,12.59,10.96
			c9.33,4.55,11.78,8.34,11.78,13.59c0,8.51-7.35,11.49-15.16,11.49C106.96,425.46,101.65,423.88,98.5,422.89z"/>
		<path class="st0" d="M143.29,413.27v-28.98c-6.42,0.35-11.08,7-12.25,10.61h-0.17v-11.2h33.35v11.2h-0.17
			c-1.11-3.56-5.6-9.97-11.78-10.55v28.92c0,4.9,0.29,7.99,2.45,11.25h-13.88C143,421.26,143.29,418.17,143.29,413.27z"/>
		<path class="st0" d="M169.02,415.02v-21.81c0-4.9-0.29-7.58-2.45-9.5h17.67c9.74,0,15.39,4.37,15.39,11.43
			c0,5.42-2.57,8.86-6.65,10.44c-1.11,0.41-2.33,0.7-3.62,0.87l3.85,8.57c2.39,5.3,3.85,8.16,6.65,9.5H185.4
			c0.47-0.64,0.7-1.34,0.7-2.16c0-1.28-0.58-2.97-1.58-5.25L178,402.07v12.95c0,4.9,0.29,7.58,2.45,9.5h-13.88
			C168.73,422.6,169.02,419.92,169.02,415.02z M184,405.4c4.84,0,6.94-3.97,6.94-10.5c0-4.96-1.05-10.61-6.71-10.61
			c-4.2,0-6.47,3.44-6.47,10.67C177.77,402.6,179.86,405.4,184,405.4z"/>
		<path class="st0" d="M202.21,419.45c0-1.05,0.18-2.16,0.7-3.32l11.2-25.71c-0.87-2.16-2.04-4.78-4.84-6.71h12.01l11.49,31.31
			c1.81,4.9,3.15,7.58,5.95,9.5h-14.46c0.58-0.76,0.87-1.69,0.87-2.74c0-1.28-0.35-2.8-1.69-6.12c-0.87-2.16-1.92-2.45-3.09-2.45
			c-1.81,0-3.03,1.93-5.01,6.07c-1.98,4.08-3.44,6.18-7.06,6.18C204.49,425.46,202.21,422.83,202.21,419.45z M211.72,418.05
			c1.75,0,3.62-0.87,5.19-3.09c0.93-1.34,1.81-2.33,3.67-2.33c0.82,0,1.52,0.29,1.98,0.64l-8.1-22.1l-6.18,14.11
			c-0.99,2.28-2.1,4.96-2.1,7.29C206.17,416.3,209.27,418.05,211.72,418.05z"/>
		<path class="st0" d="M243.27,390.7l0.06,21.98c0,4.9,1.52,8.63,3.62,11.84h-7.81c2.16-3.26,3.62-6.94,3.62-11.84l-0.06-22.74
			l-4.55-6.24h10.14l20.18,27.06l0.06-15.22c0-4.9-1.46-8.57-3.62-11.84h7.81c-2.1,3.21-3.62,6.94-3.62,11.84l-0.06,29.92h-0.29
			L243.27,390.7z"/>
		<path class="st0" d="M278.09,413.27v-18.31c0-4.9-0.29-7.99-2.45-11.25h17.61c12.25,0,21.05,9.15,21.05,20.35
			s-8.63,20.47-20.7,20.47h-17.96C277.8,421.26,278.09,418.17,278.09,413.27z M290.92,423.94c9.33,0,13.7-8.75,13.76-19.83
			c0-11.08-4.43-19.83-13.76-19.83h-3.85v39.65H290.92z"/>
	</g>
	<g>
		<path class="st0" d="M216.91,75.5c-2.89,0-5.91,0.27-9.25,0.84l-6.18,1.05l62.87-46.58v-3.73h-65.57v3.01h61.52l-3.68,2.71
			c0,0-37.64,27.76-59.33,43.79v3.9l0.19-0.05c0.36-0.1,0.55-0.15,0.67-0.18v0c7.01-1.48,11.45-1.73,18.74-1.73
			c29.01,0,52.61,23.67,52.61,52.77c0,29.09-23.6,52.76-52.61,52.76c-29,0-52.6-23.67-52.6-52.76c0-6.44,1.2-12.82,3.57-18.95
			c0.07-0.18,6.89-18,6.89-29.66c0-30.75-24.94-55.78-55.6-55.78s-55.6,25.02-55.6,55.78c0,23.43,14.5,44.17,36.3,52.27v-3.28
			c-19.96-7.93-33.31-27.49-33.31-48.99c0-29.1,23.6-52.77,52.6-52.77c29,0,52.6,23.67,52.6,52.77c0,7.57-1.66,15.21-4.8,22.1
			c-3.23,7.1-7.73,11.49-13.73,16.93c-12.9,11.7-27.29,21.96-41.21,31.89c-5.46,3.89-11.1,7.91-16.55,11.96l-22,16.3v5.48h80.73
			l-3.68,2.71c0,0-37.64,27.76-59.33,43.79v3.9c0.46-0.13,0.71-0.19,0.87-0.23l0-0.01c7.02-1.48,11.45-1.73,18.74-1.73
			c29.01,0,52.61,23.67,52.61,52.77c0,29.09-23.6,52.76-52.61,52.76c-29,0-52.6-23.67-52.6-52.76c0-5.75,0.96-11.45,2.84-16.97
			l-3.12-0.09c-1.81,5.59-2.72,11.33-2.72,17.06c0,30.75,24.94,55.77,55.6,55.77c30.66,0,55.6-25.02,55.6-55.77
			c0-2.84-0.21-5.7-0.64-8.48l-0.72-4.7l3.28,3.44c6.01,6.3,13.38,11.12,21.41,14.02v-3.28c-20.31-7.79-33.88-27.43-33.88-49.22
			c0-29.1,23.6-52.77,52.61-52.77c29.01,0,52.6,23.67,52.6,52.77c0,12.02-4.18,23.8-11.77,33.17c-5.68,7.01-33.82,26.81-36.93,29.12
			l-46.24,34.39v3.75l57.62-42.7c1.62-1.2,3.26-2.39,4.89-3.58c13.26-9.65,25.79-18.76,31.74-34.24c2.44-6.36,3.68-13.06,3.68-19.92
			c0-22.92-13.74-43.26-35.01-51.79l-4.45-1.79l4.68-1.07c25.05-5.73,43.23-28.6,43.23-54.36C272.52,100.52,247.57,75.5,216.91,75.5
			z M196.1,185.93c-25.05,5.74-43.23,28.6-43.23,54.37c0,2.73,0.22,5.57,0.66,8.45l0.72,4.7l-3.28-3.44
			c-10.61-11.13-24.88-17.26-40.16-17.26c-2.88,0-5.91,0.27-9.25,0.84l-6.17,1.04l63.44-47v-3.76H75.79l52.78-39.11
			c1.62-1.2,3.26-2.4,4.89-3.6c9.32-6.83,18.96-13.89,26.43-22.08l3.65-4l-1.08,5.31c-0.77,3.79-1.14,7.35-1.14,10.88
			c0,22.92,13.74,43.25,35.01,51.79l4.45,1.79L196.1,185.93z"/>
		<path class="st0" d="M306.54,4.54H21.2c-3.04,0-5.5,2.46-5.5,5.5v351.09c0,3.04,2.46,5.5,5.5,5.5h285.34c3.04,0,5.5-2.46,5.5-5.5
			V10.04C312.04,7.01,309.57,4.54,306.54,4.54z M267.07,240.29c0,7.23-1.31,14.29-3.88,21c-6.27,16.31-19.74,26.11-32.78,35.59
			c-1.63,1.18-3.26,2.37-4.87,3.57l-62.4,46.23v-11.22c0,0,78.05-56.74,83.84-63.89c7.16-8.83,11.1-19.94,11.1-31.27
			c0-27.44-22.25-49.77-49.61-49.77c-27.36,0-49.61,22.33-49.61,49.77c0,20.87,13.22,39.66,32.89,46.76l0.99,0.36v9.53l-1.95-0.62
			c-7.94-2.53-15.32-6.81-21.57-12.49c0.12,1.56,0.19,3.13,0.19,4.69c0,32.41-26.29,58.77-58.6,58.77
			c-32.31,0-58.59-26.37-58.59-58.77c0-6.43,1.09-12.85,3.23-19.09l0.36-1.05l9.52,0.29l-0.76,1.98c-2.23,5.79-3.36,11.8-3.36,17.87
			c0,27.44,22.25,49.76,49.61,49.76c27.36,0,49.61-22.32,49.61-49.76c0-27.44-22.26-49.77-49.61-49.77
			c-7.07,0-11.37,0.24-18.12,1.67l-4.48,1.25v-9.36l0.61-0.45c17.54-12.97,46.15-34.08,56.26-41.53h-74.6v-10l23.22-17.2
			c5.48-4.06,44.76-32.08,57.53-43.66c5.73-5.19,10.02-9.38,13.01-15.95c2.96-6.5,4.53-13.71,4.53-20.85
			c0-27.44-22.25-49.77-49.61-49.77S69.56,55.22,69.56,82.66c0,20.61,12.99,39.32,32.33,46.56l0.97,0.36v9.54l-1.96-0.65
			c-24.12-7.96-40.33-30.39-40.33-55.81c0-32.41,26.28-58.78,58.59-58.78s58.59,26.37,58.59,58.78c0,12.22-6.8,30-7.09,30.75
			c-2.23,5.79-3.36,11.8-3.36,17.87c0,27.44,22.25,49.76,49.61,49.76c27.36,0,49.61-22.32,49.61-49.76
			c0-27.44-22.26-49.77-49.61-49.77c-7.06,0-11.35,0.24-18.08,1.66l-4.52,1.26v-9.37l0.61-0.45c17.54-12.97,46.16-34.08,56.26-41.53
			H195.8v-9.01h71.55v8.25l-54.45,40.34c1.37-0.11,2.7-0.16,4.01-0.16c32.31,0,58.6,26.37,58.6,58.78
			c0,25.71-17.18,48.67-41.41,56.17C254.26,197.27,267.07,217.57,267.07,240.29z"/>
		<path class="st0" d="M158.32,131.28c0-2.21,0.14-4.43,0.42-6.69c-7.06,6.94-73.86,56.28-73.86,56.28h76.95l-0.05,8.17
			l-54.97,40.87c1.37-0.11,2.7-0.16,4.01-0.16c14.68,0,28.47,5.37,39.26,15.2c-0.13-1.57-0.19-3.13-0.19-4.65
			c0-25.71,17.17-48.68,41.41-56.18C171.13,174.29,158.32,153.99,158.32,131.28z"/>
	</g>
</g>
</svg>
